<svg viewBox="0 0 100 100" xmlns="http://www.w3.org/2000/svg" preserveAspectRatio="xMidYMid" width="200" height="200" xmlns:xlink="http://www.w3.org/1999/xlink" style="margin-top:0px;margin-right:0px;margin-bottom:0px;margin-left:0px;display:block;shape-rendering:auto;background-position-x:0%;background-position-y:0%;background-size:auto;background-origin:padding-box;background-clip:border-box;background:scroll rgb(255, 255, 255) none  repeat;width:200px;height:200px;;animation:none"><g class="ldl-scale" style="transform-origin:50px 50px;transform:matrix(0.8, 0, 0, 0.8, 0, 0);;animation:none"><g class="ldl-ani"><g class="ldl-layer"><g class="ldl-ani" style="transform-origin:50px 50px;transform:matrix(0.91, 0, 0, 0.91, 0, 0);animation-duration:1s;animation-timing-function:linear;animation-delay:-1s;animation-iteration-count:infinite;animation-direction:normal;animation-fill-mode:forwards;animation-play-state:paused;animation-name:animate;animation-timeline:auto;animation-range-start:normal;animation-range-end:normal;transform-box:view-box;;animation:none"><path fill="#333" d="M85.2 43.2c.9.5 2 .8 3.1.8a6.7 6.7 0 1 0-6.7-6.7c0 1.1.3 2.2.8 3.1l-6.8 6.8-6.8-6.8c.5-.9.8-2 .8-3.1 0-3.7-3-6.7-6.7-6.7-1.1 0-2.2.3-3.1.8L53 24.6l6.8-6.8c.9.5 2 .8 3.1.8 3 0 5.5-2 6.4-4.7H82c.9 2.7 3.4 4.7 6.4 4.7 3.7 0 6.7-3 6.7-6.7S92 5 88.3 5c-3 0-5.6 2-6.4 4.7H69.2C68.3 7 65.8 5 62.8 5c-3.7 0-6.7 3-6.7 6.7 0 1.1.3 2.2.8 3.1L50 21.7l-6.8-6.8c.5-.9.8-2 .8-3.1 0-3.7-3-6.7-6.7-6.7-3 0-5.6 2-6.4 4.7H18.1C17.3 7 14.7 5 11.7 5a6.7 6.7 0 0 0 0 13.4c3 0 5.5-2 6.4-4.7h12.7c.9 2.7 3.4 4.7 6.4 4.7 1.1 0 2.2-.3 3.1-.8l6.8 6.8-6.8 6.8c-.9-.5-2-.8-3.1-.8-3 0-5.6 2-6.4 4.7H18.1c-.8-2.7-3.4-4.7-6.4-4.7a6.7 6.7 0 0 0 0 13.4c3 0 5.5-2 6.4-4.7h12.7c.9 2.7 3.4 4.7 6.4 4.7 3.7 0 6.7-3 6.7-6.7 0-1.1-.3-2.2-.8-3.1l6.8-6.8 6.8 6.8c-.5.9-.8 2-.8 3.1 0 3.7 3 6.7 6.7 6.7 1.1 0 2.2-.3 3.1-.8l6.8 6.8-6.8 6.8c-.9-.5-2-.8-3.1-.8-3 0-5.6 2-6.4 4.7H43.6c-.8-2.7-3.4-4.7-6.4-4.7-3.7 0-6.7 3-6.7 6.7 0 1.1.3 2.2.8 3.1l-6.8 6.8-6.8-6.8c.5-.9.8-2 .8-3.1 0-3.7-3-6.7-6.7-6.7S5 59.1 5 62.8s3 6.7 6.7 6.7c1.1 0 2.2-.3 3.1-.8l6.8 6.8-6.8 6.8c-.9-.5-2-.8-3.1-.8-3.7 0-6.7 3-6.7 6.7S8 95 11.7 95s6.7-3 6.7-6.7c0-1.1-.3-2.2-.8-3.1l6.8-6.8 6.8 6.8c-.5.9-.8 2-.8 3.1 0 3.7 3 6.7 6.7 6.7 3 0 5.5-2 6.4-4.7h12.7c.9 2.7 3.4 4.7 6.4 4.7 3 0 5.5-2 6.4-4.7h12.7c.9 2.7 3.4 4.7 6.4 4.7a6.7 6.7 0 0 0 0-13.4c-3 0-5.6 2-6.4 4.7H69.2c-.8-2.7-3.4-4.7-6.4-4.7s-5.6 2-6.4 4.7H43.6c-.8-2.7-3.4-4.7-6.4-4.7-1.1 0-2.2.3-3.1.8l-6.8-6.8 6.8-6.8c.9.5 2 .8 3.1.8 3 0 5.5-2 6.4-4.7h12.7c.9 2.7 3.4 4.7 6.4 4.7 3.7 0 6.7-3 6.7-6.7 0-1.1-.3-2.2-.8-3.1l6.8-6.8 6.8 6.8c-.5.9-.8 2-.8 3.1a6.7 6.7 0 1 0 6.7-6.7c-1.1 0-2.2.3-3.1.8l-6.7-7 6.9-6.8zm3.1-9.2c1.8 0 3.2 1.4 3.2 3.2s-1.4 3.2-3.2 3.2-3.2-1.4-3.2-3.2 1.4-3.2 3.2-3.2zm0-25.5c1.8 0 3.2 1.4 3.2 3.2s-1.4 3.2-3.2 3.2-3.2-1.4-3.2-3.2 1.4-3.2 3.2-3.2zm-25.5 0c1.8 0 3.2 1.4 3.2 3.2s-1.4 3.2-3.2 3.2-3.2-1.4-3.2-3.2 1.4-3.2 3.2-3.2zm-51.1 6.4c-1.8 0-3.2-1.4-3.2-3.2s1.4-3.2 3.2-3.2 3.2 1.4 3.2 3.2-1.4 3.2-3.2 3.2zM34 11.7c0-1.8 1.4-3.2 3.2-3.2s3.2 1.4 3.2 3.2-1.4 3.2-3.2 3.2-3.2-1.4-3.2-3.2zM11.7 40.5c-1.8 0-3.2-1.4-3.2-3.2S9.9 34 11.7 34s3.2 1.4 3.2 3.2-1.4 3.3-3.2 3.3zm25.5 0c-1.8 0-3.2-1.4-3.2-3.2s1.4-3.2 3.2-3.2 3.2 1.4 3.2 3.2-1.4 3.2-3.2 3.2zm22.3-3.3c0-1.8 1.4-3.2 3.2-3.2s3.2 1.4 3.2 3.2-1.4 3.2-3.2 3.2-3.2-1.4-3.2-3.2zm-51 25.6c0-1.8 1.4-3.2 3.2-3.2s3.2 1.4 3.2 3.2-1.4 3.2-3.2 3.2-3.2-1.5-3.2-3.2zm3.2 28.7c-1.8 0-3.2-1.4-3.2-3.2s1.4-3.2 3.2-3.2 3.2 1.4 3.2 3.2-1.4 3.2-3.2 3.2zm76.6-6.4c1.8 0 3.2 1.4 3.2 3.2s-1.4 3.2-3.2 3.2-3.2-1.4-3.2-3.2 1.4-3.2 3.2-3.2zm-25.5 0c1.8 0 3.2 1.4 3.2 3.2s-1.4 3.2-3.2 3.2-3.2-1.4-3.2-3.2 1.4-3.2 3.2-3.2zm-22.3 3.2c0 1.8-1.4 3.2-3.2 3.2S34 90.1 34 88.3s1.4-3.2 3.2-3.2 3.3 1.4 3.3 3.2zM37.2 66c-1.8 0-3.2-1.4-3.2-3.2s1.4-3.2 3.2-3.2 3.2 1.4 3.2 3.2S39 66 37.2 66zm25.6 0c-1.8 0-3.2-1.4-3.2-3.2s1.4-3.2 3.2-3.2S66 61 66 62.8 64.5 66 62.8 66zm28.7-3.2c0 1.8-1.4 3.2-3.2 3.2s-3.2-1.4-3.2-3.2 1.4-3.2 3.2-3.2 3.2 1.4 3.2 3.2z" style="stroke-width:1px;fill:rgb(51, 51, 51);;animation:none"></path></g></g>
<metadata xmlns:d="https://loading.io/stock/"></metadata></g></g>
<STYLE type="text/css">@keyframes animate { 0.00% {transform: translate(0.00px,0.00px) rotate(0.00deg) scale(0.91, 0.91) skew(0deg, 0.00deg) ;opacity: 1.00;}4.00% {transform: translate(0.00px,0.00px) rotate(0.00deg) scale(0.91, 0.91) ;}8.00% {animation-timing-function: cubic-bezier(0.69,0.60,0.35,0.27);transform: translate(0.00px,0.00px) rotate(0.00deg) scale(0.91, 0.91) ;}14.00% {transform: translate(0.00px,0.00px) rotate(0.00deg) scale(0.93, 0.93) ;}18.00% {transform: translate(0.00px,0.00px) rotate(0.00deg) scale(0.94, 0.94) ;}22.00% {animation-timing-function: cubic-bezier(0.67,0.66,0.34,0.33);transform: translate(0.00px,0.00px) rotate(0.00deg) scale(0.96, 0.96) ;}26.00% {transform: translate(0.00px,0.00px) rotate(0.00deg) scale(0.97, 0.97) ;}30.00% {transform: translate(0.00px,0.00px) rotate(0.00deg) scale(0.99, 0.99) ;}34.00% {animation-timing-function: cubic-bezier(0.65,0.71,0.32,0.38);transform: translate(0.00px,0.00px) rotate(0.00deg) scale(1.01, 1.01) ;}40.00% {animation-timing-function: cubic-bezier(0.64,0.74,0.31,0.41);transform: translate(0.00px,0.00px) rotate(0.00deg) scale(1.02, 1.02) ;}46.00% {animation-timing-function: cubic-bezier(0.60,0.91,0.23,0.63);transform: translate(0.00px,0.00px) rotate(0.00deg) scale(1.03, 1.03) ;}50.00% {transform: translate(0.00px,0.00px) rotate(0.00deg) scale(1.03, 1.03) ;}54.00% {transform: translate(0.00px,0.00px) rotate(0.00deg) scale(1.03, 1.03) ;}58.00% {animation-timing-function: cubic-bezier(0.69,0.60,0.35,0.27);transform: translate(0.00px,0.00px) rotate(0.00deg) scale(1.03, 1.03) ;}64.00% {transform: translate(0.00px,0.00px) rotate(0.00deg) scale(1.01, 1.01) ;}68.00% {transform: translate(0.00px,0.00px) rotate(0.00deg) scale(1.00, 1.00) ;}72.00% {animation-timing-function: cubic-bezier(0.67,0.66,0.34,0.33);transform: translate(0.00px,0.00px) rotate(0.00deg) scale(0.98, 0.98) ;}76.00% {animation-timing-function: cubic-bezier(0.66,0.68,0.33,0.35);transform: translate(0.00px,0.00px) rotate(0.00deg) scale(0.97, 0.97) ;}82.00% {animation-timing-function: cubic-bezier(0.65,0.71,0.32,0.38);transform: translate(0.00px,0.00px) rotate(0.00deg) scale(0.94, 0.94) ;}88.00% {animation-timing-function: cubic-bezier(0.65,0.73,0.31,0.40);transform: translate(0.00px,0.00px) rotate(0.00deg) scale(0.92, 0.92) ;}94.00% {animation-timing-function: cubic-bezier(0.63,0.80,0.28,0.48);transform: translate(0.00px,0.00px) rotate(0.00deg) scale(0.91, 0.91) ;}100.00% {animation-timing-function: cubic-bezier(0.63,0.80,0.28,0.48);transform: translate(0.00px,0.00px) rotate(0.00deg) scale(0.91, 0.91) ;} }</STYLE><!-- [ldio] generated by https://loading.io --></svg>